<?xml version="1.0" standalone="no"?>
<!DOCTYPE svg PUBLIC "-//W3C//DTD SVG 20010904//EN"
 "http://www.w3.org/TR/2001/REC-SVG-20010904/DTD/svg10.dtd">
<svg version="1.0" xmlns="http://www.w3.org/2000/svg"
 width="580.000000pt" height="580.000000pt" viewBox="0 0 580.000000 580.000000"
 preserveAspectRatio="xMidYMid meet">
<metadata>
Created by potrace 1.11, written by Peter Selinger 2001-2013
</metadata>
<g transform="translate(0.000000,580.000000) scale(0.100000,-0.100000)"
fill="#000000" stroke="none">
<path d="M1419 5722 c-199 -234 -313 -450 -379 -724 -40 -165 -50 -255 -57
-503 -6 -225 8 -399 60 -742 l24 -152 -44 40 c-25 23 -69 52 -99 66 -47 21
-67 25 -133 22 -66 -3 -83 -8 -114 -32 -88 -67 -121 -177 -121 -402 1 -141 4
-172 27 -259 51 -190 152 -355 304 -496 138 -128 237 -174 330 -154 27 6 54
13 62 15 10 3 22 -30 45 -121 47 -180 54 -198 100 -248 73 -81 316 -265 594
-451 l92 -62 0 -59 0 -60 -385 0 c-425 0 -412 2 -555 -68 -105 -52 -221 -168
-277 -277 -70 -136 -75 -163 -80 -418 l-5 -228 41 -16 41 -16 0 -189 0 -188
55 0 55 0 0 190 c0 175 1 190 18 189 9 0 109 -10 222 -22 l205 -22 7 -50 c3
-28 7 -103 7 -167 l1 -118 45 0 45 0 0 198 0 197 71 70 c38 39 149 156 246
262 l177 191 34 -43 c46 -60 113 -110 208 -156 159 -77 344 -105 637 -96 332
10 484 62 636 214 l85 84 263 -263 263 -263 0 -197 0 -198 45 0 45 0 0 160 c0
88 1 160 3 160 1 0 98 14 216 30 117 17 215 30 217 30 2 0 4 -85 4 -190 l0
-190 55 0 55 0 0 190 0 190 48 22 47 23 3 90 c7 204 -29 409 -97 550 -68 143
-160 234 -313 313 l-73 37 -422 3 -423 3 0 32 c1 30 7 36 91 86 233 139 474
309 576 404 64 60 86 117 162 413 l11 41 50 -11 c103 -21 203 29 350 174 147
144 239 298 288 479 22 84 25 116 26 256 0 225 -33 335 -121 402 -30 23 -48
28 -109 31 -84 5 -125 -7 -195 -54 l-51 -34 7 27 c3 15 28 52 53 81 71 81 69
75 28 113 l-38 34 17 85 c33 167 30 506 -9 840 -11 103 -11 106 16 188 l27 82
-40 27 c-43 28 -47 45 -24 100 8 19 15 37 15 39 0 2 -25 22 -55 45 -46 35 -61
55 -94 124 -49 105 -116 209 -195 303 l-60 72 -1411 0 -1410 -1 -66 -77z
m2495 -573 c242 -123 386 -346 435 -676 18 -121 17 -127 -52 -222 -35 -47 -66
-91 -70 -98 -4 -7 31 -38 93 -83 55 -39 100 -74 100 -78 0 -5 -18 -26 -40 -47
l-40 -39 37 -38 36 -37 -7 -211 c-7 -237 -12 -224 74 -190 28 11 52 20 54 20
2 0 -7 -51 -20 -112 -14 -62 -47 -241 -75 -398 -46 -264 -126 -614 -184 -805
-29 -95 -50 -119 -225 -248 -193 -142 -652 -437 -746 -478 -77 -35 -543 -53
-721 -28 -88 12 -137 38 -443 243 -340 226 -611 433 -654 498 -16 25 -87 298
-131 508 -24 111 -55 270 -140 714 -14 71 -23 131 -21 133 3 3 27 -2 55 -10
50 -15 51 -14 52 7 0 11 4 87 8 167 7 145 8 147 39 187 18 22 32 42 32 45 0 3
-28 22 -62 43 l-61 37 99 92 99 92 -69 89 -68 89 6 96 c17 273 162 562 343
685 89 61 119 63 255 20 175 -55 409 -97 624 -112 l102 -7 23 -41 c24 -41 24
-41 27 -13 l3 28 41 -46 42 -47 21 42 c19 38 23 40 28 21 7 -29 21 -27 64 13
35 31 45 34 128 40 213 17 481 68 660 128 66 22 127 44 135 49 26 15 51 10
114 -22z m-3013 -1536 c51 -27 121 -104 166 -181 20 -34 40 -115 89 -360 35
-175 64 -324 64 -333 0 -11 -11 -18 -32 -21 -26 -4 -36 1 -62 29 -92 103 -100
199 -22 272 29 27 29 31 -11 151 -34 102 -106 239 -154 294 -44 50 -110 86
-156 86 -40 0 -68 -34 -89 -108 -26 -90 0 -252 41 -252 23 0 28 24 14 67 -27
84 -4 243 36 243 31 0 93 -40 124 -79 37 -47 38 -51 7 -51 -28 0 -90 -40 -94
-62 -5 -25 26 -29 61 -8 17 11 46 20 63 20 29 0 33 -5 59 -67 l29 -66 -24 -16
c-97 -63 -134 -136 -128 -245 3 -39 8 -80 13 -91 5 -11 -13 8 -38 43 -47 63
-70 75 -81 46 -6 -16 49 -103 126 -196 75 -91 146 -114 237 -78 82 32 96 24
115 -61 9 -39 16 -75 16 -79 0 -4 -19 -15 -42 -25 -58 -23 -98 -13 -185 47
-133 92 -260 248 -323 396 -105 248 -103 586 6 687 38 35 109 35 175 -2z
m4063 2 c109 -101 111 -439 6 -687 -63 -148 -191 -305 -323 -396 -82 -56 -122
-69 -171 -52 l-34 11 20 87 c10 47 21 88 23 91 2 2 31 -6 64 -19 96 -36 163
-14 239 78 74 90 134 182 128 197 -11 29 -37 14 -83 -47 -25 -35 -43 -54 -38
-43 5 11 10 52 13 91 6 109 -31 182 -128 245 l-24 16 29 66 c26 62 30 67 59
67 17 0 46 -9 63 -20 35 -21 66 -17 61 8 -4 22 -66 62 -94 62 -31 0 -30 4 7
51 31 39 93 79 124 79 40 0 63 -159 36 -243 -14 -43 -9 -67 14 -67 41 0 67
162 41 252 -21 74 -49 108 -89 108 -46 0 -112 -36 -156 -86 -48 -55 -120 -192
-154 -294 -40 -120 -40 -124 -11 -151 78 -73 70 -169 -23 -273 -23 -25 -37
-33 -52 -29 -15 4 -19 11 -16 27 3 11 20 113 39 226 40 235 81 431 100 475 24
53 99 136 151 166 67 39 140 40 179 4z m-3912 -569 c-78 -85 -75 -195 8 -303
l40 -53 -31 0 c-33 0 -78 20 -98 44 -11 12 -11 16 -1 16 14 0 10 20 -19 100
-37 100 -23 172 47 239 l46 45 14 -33 c12 -30 11 -36 -6 -55z m3675 5 c43 -62
40 -141 -8 -259 -11 -26 -11 -34 -1 -41 25 -15 -48 -61 -97 -61 l-31 0 40 53
c83 107 86 218 9 303 -16 17 -18 25 -8 53 l11 32 32 -24 c17 -13 41 -39 53
-56z m-2433 -1650 c168 -108 192 -115 436 -126 140 -6 427 8 516 24 24 5 86
34 138 65 52 31 97 56 100 56 12 0 5 -148 -9 -203 -52 -201 -251 -288 -660
-291 -373 -2 -561 81 -610 271 -15 57 -21 263 -8 263 3 0 47 -26 97 -59z"/>
<path d="M1752 4135 c-96 -48 -136 -73 -144 -91 -7 -15 -8 -28 -2 -33 5 -4
110 -13 234 -20 310 -17 555 -49 658 -85 23 -8 42 -12 42 -9 0 5 -99 192 -106
202 -3 3 -528 100 -545 101 -3 0 -65 -29 -137 -65z"/>
<path d="M3605 4140 c-93 -15 -222 -35 -287 -45 l-116 -17 -62 -100 c-33 -55
-59 -102 -57 -104 2 -2 26 2 53 10 112 32 371 54 727 63 l277 6 0 28 c0 36
-33 61 -177 133 -131 65 -121 65 -358 26z"/>
<path d="M1581 3796 c-49 -49 -59 -76 -28 -76 6 0 30 19 53 41 l43 42 308 -22
c376 -26 353 -26 353 -1 0 11 -4 20 -9 20 -20 0 -569 40 -616 45 -51 5 -51 4
-104 -49z"/>
<path d="M3880 3839 c-63 -4 -189 -13 -280 -19 -221 -15 -230 -16 -230 -42 0
-20 4 -21 68 -15 37 3 191 13 344 23 l276 18 41 -37 c23 -20 45 -37 50 -37 5
0 16 -3 25 -6 29 -11 19 34 -11 50 -16 8 -41 28 -57 45 -33 35 -26 34 -226 20z"/>
<path d="M3687 3755 c-169 -12 -312 -26 -316 -31 -8 -8 -38 -91 -61 -167 l-9
-28 37 30 c20 16 48 41 61 55 20 21 34 26 73 26 l48 0 -20 -32 c-27 -45 -27
-135 0 -188 26 -51 98 -105 161 -120 192 -46 360 146 275 313 l-23 47 41 0
c30 0 55 -9 91 -33 28 -19 63 -42 79 -53 l29 -19 -43 80 c-67 126 -81 145 -98
144 -9 -1 -156 -12 -325 -24z m197 -121 c28 -74 -47 -134 -112 -88 -16 11 -22
25 -22 53 0 21 3 41 7 44 3 4 32 7 64 7 43 0 58 -4 63 -16z"/>
<path d="M1667 3762 c-2 -4 -26 -47 -52 -97 -26 -49 -52 -96 -58 -102 -18 -23
3 -13 78 37 62 42 82 50 120 50 25 0 45 -3 45 -6 0 -3 -9 -17 -19 -30 -29 -37
-35 -95 -17 -158 13 -42 27 -64 63 -95 44 -39 119 -71 168 -71 48 0 124 32
168 70 69 61 93 148 63 233 l-14 37 32 0 c24 0 46 -14 95 -58 36 -31 62 -50
59 -42 -3 8 -17 52 -32 97 -15 46 -32 86 -38 89 -6 4 -131 15 -277 25 -146 10
-292 20 -323 23 -31 3 -59 2 -61 -2z m494 -132 c28 0 26 -63 -3 -90 -25 -23
-49 -25 -81 -9 -30 16 -37 28 -37 65 0 42 8 47 59 40 24 -3 52 -6 62 -6z"/>
<path d="M1600 3265 c0 -3 12 -26 26 -51 l26 -44 81 0 c45 0 186 -3 312 -6
l230 -7 32 47 c36 51 35 56 -8 25 -28 -20 -34 -20 -329 -10 -281 9 -303 11
-335 31 -19 12 -35 19 -35 15z"/>
<path d="M4058 3249 c-26 -19 -50 -21 -323 -30 l-296 -10 -36 22 -36 23 17
-30 c43 -73 10 -67 351 -59 l306 7 23 37 c36 58 38 61 29 61 -4 0 -20 -10 -35
-21z"/>
<path d="M2599 2860 c-68 -82 -123 -153 -122 -158 2 -10 307 -220 312 -215 3
2 -18 27 -45 56 -28 28 -69 74 -91 100 l-40 49 38 74 c35 70 86 231 76 240 -2
3 -60 -63 -128 -146z"/>
<path d="M2261 2186 c-20 -23 1 -42 52 -49 23 -3 96 -13 162 -21 206 -27 564
-21 845 15 111 14 120 17 120 39 0 27 -19 30 -121 14 -325 -48 -730 -44 -1010
11 -26 5 -39 3 -48 -9z"/>
<path d="M2575 1902 c-16 -42 -14 -42 209 -42 134 0 217 4 221 10 3 6 4 19 0
30 -6 18 -16 19 -215 17 -164 -2 -211 -5 -215 -15z"/>
</g>
</svg>
